<?xml version="1.0" encoding="UTF-8"?>
<svg id="Layer_2" data-name="Layer 2" xmlns="http://www.w3.org/2000/svg" viewBox="0 0 1174.24 343.5">
  <defs>
    <style>
      .cls-1 {
        fill: #9793cc;
      }

      .cls-2 {
        fill: #fff0e1;
      }

      .cls-2, .cls-3, .cls-4 {
        stroke-miterlimit: 10;
      }

      .cls-2, .cls-4 {
        stroke: #f8c233;
        stroke-width: 7px;
      }

      .cls-5 {
        fill: #c0bae8;
      }

      .cls-3 {
        fill: none;
        fill-rule: evenodd;
        stroke: #eb6e9f;
        stroke-linecap: round;
        stroke-width: 13.58px;
      }

      .cls-4 {
        fill: #fffefc;
      }

      .cls-6 {
        fill: #eb6e9f;
      }
    </style>
  </defs>
  <g id="Layer_2-2" data-name="Layer 2">
    <g>
      <rect class="cls-2" x="231.14" y="33.37" width="939.6" height="276.77" rx="38.76" ry="38.76"/>
      <g>
        <path d="M489.73,124.44v36.4h-3.8v-33.07h-23.04v33.07h-3.8v-36.4h30.63Z"/>
        <path d="M527.9,147.16c0,8.32-5.82,13.94-13.62,13.94-4.37,0-8.11-1.87-10.4-5.41v15.24h-3.69v-37.44h3.54v5.41c2.24-3.64,6.03-5.62,10.56-5.62,7.8,0,13.62,5.62,13.62,13.88ZM524.21,147.16c0-6.34-4.42-10.66-10.19-10.66s-10.19,4.32-10.19,10.66,4.37,10.66,10.19,10.66,10.19-4.26,10.19-10.66Z"/>
        <path d="M534.92,133.49h3.69v21.74l18.25-21.74h3.28v27.35h-3.69v-21.74l-18.2,21.74h-3.33v-27.35Z"/>
        <path d="M569.76,133.49h3.69v12.12h17.21v-12.12h3.69v27.35h-3.69v-12.06h-17.21v12.06h-3.69v-27.35Z"/>
        <path d="M601.27,147.16c0-8.11,5.93-13.88,13.94-13.88s13.88,5.77,13.88,13.88-5.88,13.94-13.88,13.94-13.94-5.82-13.94-13.94ZM625.34,147.16c0-6.4-4.32-10.66-10.14-10.66s-10.19,4.26-10.19,10.66,4.37,10.66,10.19,10.66,10.14-4.26,10.14-10.66Z"/>
        <path d="M633.4,147.16c0-8.16,5.93-13.88,14.09-13.88,4.63,0,8.53,1.82,10.71,5.41l-2.76,1.87c-1.87-2.76-4.78-4.06-7.96-4.06-5.98,0-10.35,4.26-10.35,10.66s4.37,10.66,10.35,10.66c3.17,0,6.08-1.25,7.96-4l2.76,1.87c-2.18,3.54-6.08,5.41-10.71,5.41-8.16,0-14.09-5.77-14.09-13.94Z"/>
        <path d="M664.39,133.49h3.69v21.74l18.25-21.74h3.28v27.35h-3.69v-21.74l-18.2,21.74h-3.33v-27.35Z"/>
        <path d="M718.47,136.76h-10.35v24.08h-3.69v-24.08h-10.35v-3.28h24.39v3.28Z"/>
        <path d="M735.58,133.49h3.69v12.12h17.21v-12.12h3.69v27.35h-3.69v-12.06h-17.21v12.06h-3.69v-27.35Z"/>
        <path d="M792.99,133.49l-13.68,30.63c-2.29,5.36-5.2,7.07-9.1,7.07-2.55,0-4.99-.83-6.66-2.5l1.72-2.76c1.35,1.35,3.02,2.08,4.99,2.08,2.44,0,4.11-1.14,5.67-4.58l1.2-2.65-12.22-27.3h3.85l10.3,23.25,10.3-23.25h3.64Z"/>
        <path d="M821.8,148.67h-5.93v12.17h-3.69v-12.17h-5.93l-8.37,12.17h-4.42l9.83-14.09-9.05-13.26h4l8.01,12.01h5.93v-12.01h3.69v12.01h5.93l8.06-12.01h4l-9.05,13.31,9.83,14.04h-4.42l-8.42-12.17Z"/>
        <path d="M839.84,133.49h3.69v12.12h17.21v-12.12h3.69v27.35h-3.69v-12.06h-17.21v12.06h-3.69v-27.35Z"/>
        <path d="M896.05,151.9c0,5.82-4,9.1-11.23,9l-10.82-.05v-27.35h3.69v9.57l7.8.1c6.86.05,10.56,3.12,10.56,8.74ZM892.31,151.9c0-4.06-2.6-5.93-7.7-5.98l-6.92-.1v12.17l6.92.1c5.04.05,7.7-2.08,7.7-6.19ZM900.63,133.49h3.69v27.35h-3.69v-27.35Z"/>
        <path d="M937.81,148.31h-22.88c.42,5.72,4.78,9.52,10.76,9.52,3.33,0,6.29-1.2,8.37-3.59l2.08,2.39c-2.44,2.91-6.24,4.47-10.56,4.47-8.53,0-14.35-5.82-14.35-13.94s5.67-13.88,13.36-13.88,13.26,5.67,13.26,13.88c0,.31-.05.73-.05,1.14ZM914.93,145.55h19.4c-.47-5.36-4.37-9.1-9.72-9.1s-9.2,3.74-9.67,9.1Z"/>
        <path d="M458.22,195.89h3.69v21.74l18.25-21.74h3.28v27.35h-3.69v-21.74l-18.2,21.74h-3.33v-27.35Z"/>
        <path d="M493.06,195.89h3.69v12.12h17.21v-12.12h3.69v27.35h-3.69v-12.06h-17.21v12.06h-3.69v-27.35Z"/>
        <path d="M524.57,209.56c0-8.16,5.93-13.88,14.09-13.88,4.63,0,8.53,1.82,10.71,5.41l-2.76,1.87c-1.87-2.76-4.78-4.06-7.96-4.06-5.98,0-10.35,4.26-10.35,10.66s4.37,10.66,10.35,10.66c3.17,0,6.08-1.25,7.96-4l2.76,1.87c-2.18,3.54-6.08,5.41-10.71,5.41-8.16,0-14.09-5.77-14.09-13.94Z"/>
        <path d="M574.8,199.16h-10.35v24.08h-3.69v-24.08h-10.35v-3.28h24.39v3.28Z"/>
        <path d="M606.94,209.56c0,8.32-5.82,13.94-13.62,13.94-4.37,0-8.11-1.87-10.4-5.41v15.24h-3.69v-37.44h3.54v5.41c2.24-3.64,6.03-5.62,10.56-5.62,7.8,0,13.62,5.62,13.62,13.88ZM603.24,209.56c0-6.34-4.42-10.66-10.19-10.66s-10.19,4.32-10.19,10.66,4.37,10.66,10.19,10.66,10.19-4.26,10.19-10.66Z"/>
        <path d="M637.2,195.89l-13.68,30.63c-2.29,5.36-5.2,7.07-9.1,7.07-2.55,0-4.99-.83-6.66-2.5l1.72-2.76c1.35,1.35,3.02,2.08,4.99,2.08,2.44,0,4.11-1.14,5.67-4.58l1.2-2.65-12.22-27.3h3.85l10.3,23.24,10.3-23.24h3.64Z"/>
        <path d="M672.61,195.89v27.35h-3.38v-21.63l-11.08,18.3h-1.66l-11.08-18.36v21.68h-3.38v-27.35h3.74l11.6,19.71,11.8-19.71h3.43Z"/>
        <path d="M706.1,210.71h-22.88c.42,5.72,4.78,9.52,10.76,9.52,3.33,0,6.29-1.2,8.37-3.59l2.08,2.39c-2.44,2.91-6.24,4.47-10.56,4.47-8.53,0-14.35-5.82-14.35-13.94s5.67-13.88,13.36-13.88,13.26,5.67,13.26,13.88c0,.31-.05.73-.05,1.14ZM683.22,207.95h19.4c-.47-5.36-4.37-9.1-9.72-9.1s-9.2,3.74-9.67,9.1Z"/>
        <path d="M713.38,195.89h3.69v12.12h17.21v-12.12h3.69v27.35h-3.69v-12.06h-17.21v12.06h-3.69v-27.35Z"/>
        <path d="M766.78,199.16h-10.35v24.08h-3.69v-24.08h-10.35v-3.28h24.39v3.28Z"/>
        <path d="M793.25,214.3c0,5.82-4,9.1-11.23,9l-10.82-.05v-27.35h3.69v9.57l7.8.1c6.86.05,10.56,3.12,10.56,8.74ZM789.51,214.3c0-4.06-2.6-5.93-7.7-5.98l-6.92-.1v12.17l6.92.1c5.04.05,7.7-2.08,7.7-6.19ZM797.83,195.89h3.69v27.35h-3.69v-27.35Z"/>
      </g>
      <circle class="cls-4" cx="171.75" cy="171.75" r="168.25"/>
      <g>
        <g>
          <path class="cls-6" d="M222.38,58.35v7.08c2.99,0,5.88.88,8.35,2.54l22.82,15.35c3.32,2.23,5.57,5.65,6.35,9.61.78,3.97-.03,7.98-2.26,11.3l-1.15,1.7c-.45.66-1.17.72-1.38.72-.33,0-.63-.09-.89-.27l-45.1-30.34c-.46-.31-.62-.74-.68-1.05-.06-.31-.07-.77.24-1.23l1.15-1.7c2.8-4.15,7.49-6.64,12.56-6.64v-7.08M222.38,58.35c-7.14,0-14.17,3.43-18.43,9.77l-1.15,1.7c-2.68,3.98-1.61,9.43,2.37,12.11l45.1,30.34c1.48,1,3.17,1.48,4.85,1.48,2.81,0,5.58-1.35,7.26-3.84l1.15-1.7c6.8-10.11,4.09-23.94-6.01-30.74l-22.82-15.35c-3.77-2.54-8.06-3.75-12.31-3.75h0Z"/>
          <path class="cls-6" d="M170.21,229.04l-43.03-28.95c-4.55-3.06-5.77-9.29-2.71-13.83l20.62-30.65c6.76-10.04,20.51-12.73,30.55-5.98l23.05,15.51c10.04,6.76,12.73,20.51,5.98,30.55l-20.62,30.65c-3.06,4.55-9.29,5.77-13.83,2.71Z"/>
          <rect class="cls-6" x="160.56" y="124.49" width="88.43" height="13.42" rx="2.2" ry="2.2" transform="translate(-18.39 227.87) rotate(-56.07)"/>
        </g>
        <g>
          <path class="cls-5" d="M209.81,279.15h-82.67c-2.67,0-4.91-2.03-5.16-4.7l-11.44-120.46c-.29-3.04,2.1-5.68,5.16-5.68h105.55c3.06,0,5.45,2.63,5.16,5.68l-11.44,120.46c-.25,2.66-2.49,4.7-5.16,4.7Z"/>
          <rect class="cls-1" x="96.24" y="133.83" width="144.47" height="20.21" rx="10.1" ry="10.1"/>
          <path class="cls-3" d="M240.71,144.82c0,36.13-32.34,65.42-72.23,65.42-39.89,0-72.24-29.29-72.24-65.42"/>
        </g>
      </g>
    </g>
  </g>
</svg>